<svg xmlns="http://www.w3.org/2000/svg">
  <symbol id="icon-scope" viewBox="0 0 24 24"><circle cx="12" cy="12" r="7"/><path d="M12 2v4M12 18v4M2 12h4M18 12h4"/></symbol>
  <symbol id="icon-transactions" viewBox="0 0 24 24"><rect x="4" y="3" width="16" height="18" rx="2"/><path d="M8 8h8M8 12h8M8 16h5"/></symbol>
  <symbol id="icon-budget" viewBox="0 0 24 24"><path d="M12 3v9h9A9 9 0 1 1 12 3Z"/><path d="M16 3.9A9 9 0 0 1 20.1 8H16Z"/></symbol>
  <symbol id="icon-events" viewBox="0 0 24 24"><rect x="3" y="5" width="18" height="16" rx="2"/><path d="M16 3v4M8 3v4M3 10h18"/><circle cx="16" cy="16" r="3"/><path d="M16 14.5V16l1 1"/></symbol>
  <symbol id="icon-mileage" viewBox="0 0 24 24"><path d="m5 17-1 2v2h2l1-2h10l1 2h2v-2l-1-2-2-7H7Z"/><path d="M7 17h10M8 10l1-3h6l1 3"/><circle cx="8" cy="16" r="1"/><circle cx="16" cy="16" r="1"/></symbol>
  <symbol id="icon-reports" viewBox="0 0 24 24"><path d="M14 2H6a2 2 0 0 0-2 2v16a2 2 0 0 0 2 2h12a2 2 0 0 0 2-2V8Z"/><path d="M14 2v6h6M8 13h8M8 17h6"/></symbol>
  <symbol id="icon-import" viewBox="0 0 24 24"><path d="M12 16V3M7 8l5-5 5 5M5 14v6h14v-6"/></symbol>
  <symbol id="icon-settings" viewBox="0 0 24 24"><circle cx="12" cy="12" r="3"/><path d="M19.4 15a1.7 1.7 0 0 0 .34 1.88l.06.06-2.83 2.83-.06-.06A1.7 1.7 0 0 0 15 19.4a1.7 1.7 0 0 0-1 .6 1.7 1.7 0 0 0-.4 1V21h-4v-.09a1.7 1.7 0 0 0-1.1-1.51 1.7 1.7 0 0 0-1.88.34l-.06.06-2.83-2.83.06-.06A1.7 1.7 0 0 0 4.6 15a1.7 1.7 0 0 0-.6-1 1.7 1.7 0 0 0-1-.4H3v-4h.09A1.7 1.7 0 0 0 4.6 8.5a1.7 1.7 0 0 0-.34-1.88l-.06-.06 2.83-2.83.06.06A1.7 1.7 0 0 0 9 4.6a1.7 1.7 0 0 0 1-.6 1.7 1.7 0 0 0 .4-1V3h4v.09A1.7 1.7 0 0 0 15.5 4.6a1.7 1.7 0 0 0 1.88-.34l.06-.06 2.83 2.83-.06.06A1.7 1.7 0 0 0 19.4 9c.13.37.34.7.6 1 .27.27.63.4 1 .4h.09v4H21a1.7 1.7 0 0 0-1.6.6Z"/></symbol>
  <symbol id="icon-more" viewBox="0 0 24 24"><circle cx="5" cy="12" r="1"/><circle cx="12" cy="12" r="1"/><circle cx="19" cy="12" r="1"/></symbol>
  <symbol id="icon-plus" viewBox="0 0 24 24"><path d="M12 5v14M5 12h14"/></symbol>
  <symbol id="icon-pencil" viewBox="0 0 24 24"><path d="M12 20h9M16.5 3.5a2.1 2.1 0 0 1 3 3L8 18l-4 1 1-4Z"/></symbol>
  <symbol id="icon-trash" viewBox="0 0 24 24"><path d="M3 6h18M8 6V4h8v2M19 6l-1 15H6L5 6M10 11v5M14 11v5"/></symbol>
  <symbol id="icon-x" viewBox="0 0 24 24"><path d="m6 6 12 12M18 6 6 18"/></symbol>
  <symbol id="icon-chevron-right" viewBox="0 0 24 24"><path d="m9 18 6-6-6-6"/></symbol>
  <symbol id="icon-wallet" viewBox="0 0 24 24"><path d="M20 7V5a2 2 0 0 0-2-2H5a3 3 0 0 0 0 6h16v10a2 2 0 0 1-2 2H5a3 3 0 0 1-3-3V6"/><path d="M16 13h2"/></symbol>
  <symbol id="icon-trending-up" viewBox="0 0 24 24"><path d="m3 17 6-6 4 4 8-8M15 7h6v6"/></symbol>
  <symbol id="icon-receipt" viewBox="0 0 24 24"><path d="M6 2v20l3-2 3 2 3-2 3 2V2l-3 2-3-2-3 2Z"/><path d="M9 9h6M9 13h6"/></symbol>
  <symbol id="icon-home" viewBox="0 0 24 24"><path d="m3 11 9-8 9 8v10h-6v-6H9v6H3Z"/></symbol>
  <symbol id="icon-briefcase" viewBox="0 0 24 24"><rect x="3" y="7" width="18" height="13" rx="2"/><path d="M8 7V4h8v3M3 12h18M10 12v2h4v-2"/></symbol>
  <symbol id="icon-check-circle" viewBox="0 0 24 24"><circle cx="12" cy="12" r="9"/><path d="m8 12 2.5 2.5L16 9"/></symbol>
  <symbol id="icon-alert-circle" viewBox="0 0 24 24"><circle cx="12" cy="12" r="9"/><path d="M12 8v5M12 16h.01"/></symbol>
  <symbol id="icon-calendar" viewBox="0 0 24 24"><rect x="3" y="5" width="18" height="16" rx="2"/><path d="M16 3v4M8 3v4M3 10h18"/></symbol>
  <symbol id="icon-route" viewBox="0 0 24 24"><circle cx="6" cy="19" r="3"/><circle cx="18" cy="5" r="3"/><path d="M9 19h3a3 3 0 0 0 3-3v-1a3 3 0 0 0-3-3h0a3 3 0 0 1-3-3V8a3 3 0 0 1 3-3h3"/></symbol>
  <symbol id="icon-shield" viewBox="0 0 24 24"><path d="M12 22s8-4 8-10V5l-8-3-8 3v7c0 6 8 10 8 10Z"/><path d="m9 12 2 2 4-4"/></symbol>
  <symbol id="icon-archive" viewBox="0 0 24 24"><path d="M3 6h18M5 6v15h14V6M8 3h8l2 3H6Z"/><path d="M9 11h6"/></symbol>
  <symbol id="icon-target" viewBox="0 0 24 24"><circle cx="12" cy="12" r="9"/><circle cx="12" cy="12" r="5"/><circle cx="12" cy="12" r="1"/></symbol>
  <symbol id="icon-tag" viewBox="0 0 24 24"><path d="M20 13 11 4H4v7l9 9a2 2 0 0 0 3 0l4-4a2 2 0 0 0 0-3Z"/><circle cx="8" cy="8" r="1"/></symbol>
  <symbol id="icon-search" viewBox="0 0 24 24"><circle cx="11" cy="11" r="7"/><path d="m20 20-4-4"/></symbol>
  <symbol id="icon-upload" viewBox="0 0 24 24"><path d="M12 16V4M7 9l5-5 5 5M5 20h14"/></symbol>
  <symbol id="icon-download" viewBox="0 0 24 24"><path d="M12 4v12M7 11l5 5 5-5M5 20h14"/></symbol>
</svg>
